<?xml version="1.0" encoding="UTF-8" standalone="no"?>
<!-- Created with Inkscape (http://www.inkscape.org/) -->

<svg
   width="128"
   height="128"
   viewBox="0 0 33.866667 33.866667"
   version="1.1"
   id="svg1"
   xml:space="preserve"
   inkscape:version="1.4 (86a8ad7, 2024-10-11)"
   sodipodi:docname="arf_bits_greenl.svg"
   xmlns:inkscape="http://www.inkscape.org/namespaces/inkscape"
   xmlns:sodipodi="http://sodipodi.sourceforge.net/DTD/sodipodi-0.dtd"
   xmlns="http://www.w3.org/2000/svg"
   xmlns:svg="http://www.w3.org/2000/svg"><sodipodi:namedview
     id="namedview1"
     pagecolor="#505050"
     bordercolor="#eeeeee"
     borderopacity="1"
     inkscape:showpageshadow="0"
     inkscape:pageopacity="0"
     inkscape:pagecheckerboard="0"
     inkscape:deskcolor="#505050"
     inkscape:document-units="px"
     showgrid="true"
     showguides="true"
     inkscape:zoom="4.2532751"
     inkscape:cx="61.482034"
     inkscape:cy="51.489734"
     inkscape:window-width="1920"
     inkscape:window-height="1009"
     inkscape:window-x="-8"
     inkscape:window-y="-8"
     inkscape:window-maximized="1"
     inkscape:current-layer="layer2"
     inkscape:export-bgcolor="#ffffff00"><inkscape:grid
       id="grid1"
       units="px"
       originx="0"
       originy="0"
       spacingx="1.0583333"
       spacingy="1.0583333"
       empcolor="#59c8ff"
       empopacity="0.30196078"
       color="#32bbff"
       opacity="0.14901961"
       empspacing="4"
       enabled="true"
       visible="true"
       dotted="false" /></sodipodi:namedview><defs
     id="defs1"><inkscape:path-effect
       effect="powerclip"
       message=""
       id="path-effect38"
       is_visible="true"
       lpeversion="1"
       inverse="true"
       flatten="false"
       hide_clip="false" /><clipPath
       clipPathUnits="userSpaceOnUse"
       id="clipPath38"><path
         id="path38"
         style="display:block;fill:#ffffff;stroke-width:1;stroke-linecap:round;stroke-linejoin:round"
         d="M 6.3494833,0.55862223 C 5.761426,0.55915669 5.2204279,0.89234569 4.9568034,1.4180013 c -1.3e-6,6.906e-4 -1.3e-6,0.00138 0,0.00207 L 0.72243652,9.886735 c -0.381052,0.764034 -0.0661145,1.707615 0.69763188,2.089795 0.7641867,0.381996 1.707309,0.06889 2.0897949,-0.695048 L 4.6658652,8.9668946 h 3.3672362 l 1.1565187,2.3145874 c 0.382492,0.764371 1.3274959,1.077551 2.0918619,0.695048 0.763746,-0.38218 1.0761,-1.325761 0.695048,-2.089795 V 9.884675 L 7.7442302,1.4200684 v -5.159e-4 -5.16e-4 -5.159e-4 -5.16e-4 C 7.4801186,0.89137078 6.9386276,0.55800644 6.3494833,0.55862223 Z M 14.81615,11.142472 c -0.85351,8.5e-5 -1.556809,0.701435 -1.558561,1.554944 -10e-7,6.88e-4 -10e-7,0.0014 0,0.0021 v 8.466667 c 1e-6,0.85472 0.703841,1.55856 1.558561,1.558561 0.855009,4.23e-4 1.559077,-0.703553 1.559078,-1.558561 v -0.470772 l 1.571997,1.571997 c 0.604592,0.605716 1.60044,0.605716 2.205033,0 0.603728,-0.604275 0.603728,-1.59869 0,-2.202966 l -2.122867,-2.120801 c 0.117836,-0.02609 0.179636,-0.001 0.306441,-0.05478 0.549555,-0.232902 1.097141,-0.566097 1.535307,-1.078487 0.452571,-0.529235 0.736389,-1.236992 0.736389,-1.993677 0,-0.759265 -0.271496,-1.480682 -0.728638,-2.023649 -0.443449,-0.526705 -1.003788,-0.861813 -1.560628,-1.089856 -1.109437,-0.454349 -2.331447,-0.56069 -3.502112,-0.56069 z m 10.584367,10.5823 c -0.855239,-3.44e-4 -1.558895,0.703323 -1.558561,1.558562 V 31.75 c -4.23e-4,0.855298 0.703263,1.558981 1.558561,1.558563 0.855009,0 1.558977,-0.703554 1.558562,-1.558563 v -2.675805 h 1.614887 c 0.853858,5.29e-4 1.557411,-0.700569 1.559078,-1.554427 v -5.29e-4 -5.29e-4 -5.3e-4 -5.29e-4 c 5.29e-4,-0.855297 -0.703778,-1.558978 -1.559078,-1.55856 h -1.614887 v -1.117244 h 2.673739 c 0.85472,0 1.55856,-0.70384 1.55856,-1.558561 5.29e-4,-0.85501 -0.703549,-1.558562 -1.55856,-1.558562 z"
         inkscape:label="ARF"
         sodipodi:nodetypes="cccccccccccccccccccscccsccccccsssscccccccccscccscccscsc" /></clipPath></defs><g
     inkscape:groupmode="layer"
     id="layer2"
     inkscape:label="Layer 2"
     style="fill:#ff00ff;fill-opacity:1"><path
       id="path4"
       style="display:inline;fill-opacity:1;stroke:none;stroke-linecap:round;stroke-linejoin:round;stroke-opacity:1;fill:#00ff00"
       d="m 25.400517,22.224483 c -0.584881,-2.27e-4 -1.059078,0.47397 -1.05885,1.058851 V 31.75 c -2.86e-4,0.584905 0.473945,1.059136 1.05885,1.05885 0.584703,0 1.058618,-0.474147 1.058333,-1.05885 v -3.176033 h 2.115117 c 0.583897,2.86e-4 1.05771,-0.472371 1.05885,-1.056267 2.86e-4,-0.584905 -0.473945,-1.059136 -1.05885,-1.05885 H 26.45885 v -2.117183 h 3.173967 c 0.584501,0 1.058333,-0.473832 1.058333,-1.058333 2.86e-4,-0.584703 -0.47363,-1.058851 -1.058333,-1.058851 z"
       sodipodi:nodetypes="cccccccccccscsc"
       inkscape:label="F" /><path
       style="display:inline;fill-opacity:1;stroke:none;stroke-linecap:round;stroke-linejoin:round;stroke-opacity:1;fill:#00ff00"
       d="m 14.816406,11.642578 a 1.0584408,1.0584408 0 0 0 -1.058593,1.056641 v 8.466797 a 1.0583349,1.0583349 0 0 0 1.058593,1.058593 1.0583349,1.0583349 0 0 0 1.058594,-1.058593 v -1.677735 l 2.425781,2.425781 a 1.0583349,1.0583349 0 0 0 1.498047,0 1.0583349,1.0583349 0 0 0 0,-1.496093 L 17,17.621094 c 0.375484,-0.0844 0.795698,-0.04718 1.140625,-0.19336 0.502648,-0.213023 0.975569,-0.504004 1.349609,-0.941406 0.374041,-0.437402 0.617188,-1.042279 0.617188,-1.669922 0,-0.636861 -0.233859,-1.252835 -0.611328,-1.701172 -0.377469,-0.448337 -0.86026,-0.741615 -1.367188,-0.949218 -1.013856,-0.415206 -2.173524,-0.523438 -3.3125,-0.523438 z M 15.875,13.912109 c 0.518228,0.06144 1.119466,0.07705 1.451172,0.212891 0.286822,0.117463 0.465229,0.251902 0.550781,0.353516 0.08555,0.101614 0.115235,0.158347 0.115234,0.33789 0,0.143452 -0.02039,0.188916 -0.109375,0.292969 -0.08898,0.104053 -0.277257,0.245771 -0.568359,0.369141 -0.335486,0.142179 -0.926933,0.160946 -1.439453,0.228515 z"
       id="path3"
       inkscape:label="R" /><path
       id="path1"
       style="display:inline;fill-opacity:1;stroke:none;stroke-linecap:round;stroke-linejoin:round;stroke-opacity:1;fill:#00ff00"
       d="M 6.3494833,1.0588501 A 1.0584392,1.0584392 0 0 0 5.4043213,1.6427938 L 1.1699544,10.109461 A 1.0583334,1.0583334 0 0 0 1.6427938,11.529529 1.0583334,1.0583334 0 0 0 3.0623454,11.05669 L 4.3573568,8.4666667 h 3.984253 L 9.6366212,11.05669 a 1.0583334,1.0583334 0 0 0 1.4200688,0.472839 1.0583334,1.0583334 0 0 0 0.472839,-1.420068 L 7.2967123,1.6427938 A 1.0584392,1.0584392 0 0 0 6.3494833,1.0588501 Z m 0,3.4235637 0.9337931,1.8670695 H 5.4156902 Z"
       inkscape:label="A" /><ellipse
       style="fill-opacity:1;stroke:none;stroke-width:2.11667;stroke-linecap:round;stroke-linejoin:round;stroke-dasharray:none;stroke-opacity:1;fill:#00ff00"
       id="path44"
       cx="7.4083328"
       cy="26.458332"
       rx="5.291666"
       ry="5.2916656" /><circle
       style="fill-opacity:1;stroke:none;stroke-width:2.11667;stroke-linecap:round;stroke-linejoin:round;stroke-dasharray:none;stroke-opacity:1;fill:#00ff00"
       id="path45"
       cx="26.458332"
       cy="7.4083328"
       r="5.2916665" /></g></svg>
